<svg id="Layer_1" data-name="Layer 1" xmlns="http://www.w3.org/2000/svg" viewBox="0 0 581 547"><defs><style>.cls-1{fill:#1d1d1b;}</style></defs><title>Logo_lockup_001</title><path class="cls-1" d="M162.64,258.93q17.37,1.67,34.64,4.28c-.12-12.39-.14-25.79-.14-42.39q-27.28,2.35-54.39,6.7v6.37c0,8.56,0,16.29,0,23.44C149.38,257.77,156,258.29,162.64,258.93Z"/><path class="cls-1" d="M162.18,262.84c-6.47-.92-13-1.72-19.45-2.45,0,14.46-.16,26.59-.5,38.65l55.25-21.76q-.07-4.2-.13-8.46Q179.88,265.34,162.18,262.84Z"/><path class="cls-1" d="M197.14,215.25v-3c0-27.54,0-46.42.34-64.91l-55.25,21.76c.46,15.94.51,32.58.52,55Q169.75,218.72,197.14,215.25Z"/><path class="cls-1" d="M286.86,242.07l49.88-19.64c-21.45-2.41-43-3.79-64.65-4.18C277.94,226.75,283.59,235.38,286.86,242.07Z"/><path class="cls-1" d="M258.29,218.14q-22.88,0-45.75,1.51c0,18.26-.15,32.83-.28,46q5,.87,10,1.85L259,253.06C258.63,247.88,258.63,235.75,258.29,218.14Z"/><path class="cls-1" d="M212.55,206.39v7.07q22.65-2.39,45.46-3.35c-.28-7.42-.64-14.77-1.29-22.67l.52-.38a132.27,132.27,0,0,0,9,22.75,702.08,702.08,0,0,1,74.65,1.64c-.19-14.53-.19-32-.19-55.72,0-27.54.17-53.58.69-65l-45.9,18.08c.52,9.5,1,25.57,1.21,40.75.17,7,.52,15.38,1.21,24.46l-.52.2a138.77,138.77,0,0,0-7.1-19c-6.92-13.21-17.66-30.11-19.91-36.5l-58.2,22.93C212.73,159.21,212.55,178.85,212.55,206.39Z"/><path class="cls-1" d="M432.18,97.37c0-9-3.64-11.39-11.43-8.32-10.57,4.16-14.55,13.87-14.55,40,0,24.59,3.64,32.51,15.93,27.67,8.14-3.21,11.78-8.45,13-19.32-5.37,2.29-10.74,4.4-15.58,6.49.17-3.19.17-11.68.17-14.79,0-5,0-9.7-.17-13.1,11.08-4,22.34-8.45,30.65-11.73,9.53-3.75,22-8.49,34.64-14,2.77,54-7.1,78.83-64.26,101.35-47.28,18.62-68.41,8.76-68.41-42,0-49.71,21.13-73.79,68.93-92.62,49.71-19.58,64.26-10.42,64.26,16.25,0,2.78-.17,5.44-.34,8.45-8,3-17.84,6.69-27.72,10.57-9.52,3.76-18.53,7.31-25.11,10.24Z"/><path class="cls-1" d="M81.87,256.09c-2,6.84-6.31,10.5-14.46,13.71-3.12,1.23-5.72,2.25-8,3-.17-11.88-.17-24.87-.17-38.38,3.46-1.54,7.1-3,9-3.72C77.64,227,82,227.89,83,238.75q24.36-7,49.19-12.36c0-1.23,0-2.48,0-3.76,0-40.35-17-42.85-49.19-30.16L8.17,221.94c.52,18.16.7,37.14.7,64.68,0,27.72-.18,46.14-.7,65.23l53.35-21c-.69-7.34-1.21-16.32-1.39-26.64,6.24-2.29,12.47-4.74,15.59-6,28-11,43.16-22.54,50.52-39.48Q104.12,256.79,81.87,256.09Z"/><path class="cls-1" d="M127.18,256.46c3-7.77,4.46-16.67,4.87-27.14q-24.65,4.32-49,10.24c.1,1.39.15,2.93.15,4.63A44.56,44.56,0,0,1,82,255.76Q104.57,255.48,127.18,256.46Z"/><path d="M83,343.73c32.21-12.69,49.19-10.19,49.19,30.16,0,39.49-12.13,58.12-56.47,75.59-3.12,1.23-9.35,3.68-15.59,6,.18,10.32.7,19.29,1.39,26.64l-53.35,21c.52-19.09.7-37.52.7-65.23,0-27.54-.18-46.52-.7-64.68Zm.17,51.72c0-15.93-4.16-17.76-14.9-13.53-1.9.75-5.54,2.18-9,3.72,0,13.51,0,26.5.17,38.38,2.25-.71,4.85-1.73,8-3C79.36,416.35,83.17,410.69,83.17,395.45Z"/><path d="M207.18,427c-49.19,19.37-68.76,7-68.76-43.06,0-49.37,22.52-73.13,68.76-91.35s70-12.66,70,36.7C277.16,379.31,256.55,407.52,207.18,427Zm14.55-76.05c0-21.31-4.67-25.7-14.37-21.88s-14.55,11.79-14.55,33.27c0,22.86,4.67,28.12,14.55,24.23S221.73,373.61,221.73,350.92Z"/><path d="M333.05,315.11l-3.95-2q-19.87-9.93-40.66-18c0,9.65,0,20.35,0,32.62,0,27.71-.18,47.35-.35,65.09l46.77-18.42c-.35-5.24-.35-17.53-.7-35.41C333.87,331,333.59,323.27,333.05,315.11Z"/><path d="M417,221.59c.08-3.79.18-7,.29-9.53l-16.71,6.58Q408.81,220,417,221.59Z"/><path d="M335.75,316.44a124.11,124.11,0,0,0,6.53,15.05c7.62,10.86,16.11,23.1,20.44,32l30.55-12C375.05,335.81,354.86,325.88,335.75,316.44Z"/><path d="M387.42,305.82a76.21,76.21,0,0,1,29.26-60.09c0-3.23.05-6.34.08-9.3q-20-4.8-40.24-8.32l-5.14,2c.52,9.49,1,25.57,1.21,40.74.18,7,.52,15.39,1.22,24.47l-.52.2a141.6,141.6,0,0,0-7.1-19c-6.93-13.2-17.67-30.1-19.92-36.49L288.07,263c.2,6.86.3,14,.34,21.85q23.25,7.71,45.73,17.67a484.76,484.76,0,0,1,50.67,26.22,50.18,50.18,0,0,0,9,22.52l6.69-2.64A76.06,76.06,0,0,1,387.42,305.82Z"/><path d="M463.8,229.44a76.74,76.74,0,0,1,19.29,2.46c1.77-12.66,6-18.49,13.52-21.47,7.79-3.07,11.43-.69,11.43,8.32v5.19c6.58-2.94,15.59-6.49,25.12-10.24,9.87-3.89,19.74-7.6,27.71-10.57.17-3,.34-5.68.34-8.45,0-26.67-14.54-35.84-64.25-16.26C462,192.18,441.37,208.74,432.75,236A76.06,76.06,0,0,1,463.8,229.44Z"/><path d="M526.05,225.68c-8,3.14-18.64,7.34-29.28,11.23a76.48,76.48,0,0,1,41.62,52.49c20.29-18.13,24.18-41.29,22.31-77.71C548.05,217.19,535.58,221.93,526.05,225.68Z"/><path class="cls-1" d="M536.37,280.8a69.3,69.3,0,0,1,6.23,27.88,75.67,75.67,0,0,1-5.23,28.7,77.24,77.24,0,0,1-15.86,24.93,79.07,79.07,0,0,1-24.18,17.25,82.67,82.67,0,0,1-14.11,4.9,80.17,80.17,0,0,1-14.77,2.12,77.24,77.24,0,0,1-29.24-4.26,74.83,74.83,0,0,1-25.11-14.87,70,70,0,0,1-16.91-23,84.48,84.48,0,0,0,19.74,19.49,78.45,78.45,0,0,0,24.46,11.49,77.42,77.42,0,0,0,26.51,2.45A75.25,75.25,0,0,0,481,375.61a73.87,73.87,0,0,0,12.48-4.45l3-1.43,2.92-1.58c1.9-1.15,3.74-2.38,5.63-3.53,1.79-1.31,3.54-2.66,5.32-4l4.94-4.45a77.41,77.41,0,0,0,15.45-21.68A81.5,81.5,0,0,0,536.37,280.8Z"/><path class="cls-1" d="M438.35,278.69c-.49,1.48-1,3-1.45,4.45,5.84.9,11.84,2,18,3.19l-.21,1.07c-6.17-1.2-12.21-2.29-18.1-3.2q-.87,2.74-1.68,5.49c4.93.78,9.93,1.66,15,2.6-1.24,5.78-2.44,11.54-3.48,17.29-4.95-.95-9.9-1.9-14.85-2.82-.41,2.1-.76,4.2-1.06,6.28,6.91,1.39,13.79,2.79,20.59,4.14-.06.37-.13.75-.19,1.12-6.78-1.36-13.65-2.77-20.55-4.17-.44,3.27-.74,6.52-.88,9.75l-1.1-.26c.12-3.22.41-6.46.85-9.72-6.93-1.4-13.89-2.79-20.85-4.08.05-.33.1-.66.16-1,7,1.26,13.91,2.62,20.84,4q.45-3.12,1.06-6.27c-4.69-.86-9.37-1.7-14-2.48a113.5,113.5,0,0,1,5.22-16.27q6,.74,12.26,1.73c1.1-3.65,2.3-7.31,3.56-11Zm8.72,21.46q.72-3.5,1.49-7c-9-1.66-17.83-3.12-26.36-4.22-.85,2.22-1.63,4.44-2.34,6.64C428.77,296.87,437.87,298.45,447.07,300.15Zm-.22,1.07c-9.22-1.71-18.36-3.31-27.31-4.63q-1.05,3.35-1.85,6.66c9.2,1.53,18.49,3.27,27.78,5C445.9,305.94,446.37,303.58,446.85,301.22Z"/><path class="cls-1" d="M479,291.19c0,.35-.06.7-.1,1l-6.9-1.48c-.58,4.73-1.35,9.47-2.24,14.23l5.94,1.12-.21,1.06-5.93-1.11c-.86,4.52-1.82,9.05-2.82,13.6,2.72-.62,5.32-1.37,7.9-2.19-.08.37-.18.75-.27,1.12a73.94,73.94,0,0,1-17,3.59c0-.37,0-.75-.05-1.12a80.12,80.12,0,0,0,8.22-1.14c1-4.7,2-9.4,2.88-14.08l-6.9-1.31c.06-.36.13-.72.2-1.07l6.91,1.31c.88-4.76,1.67-9.51,2.26-14.24-2.4-.51-4.78-1-7.15-1.51,0-.35.1-.71.16-1.07Q471.32,289.5,479,291.19ZM484.6,318a61.71,61.71,0,0,1-13.41,8.74c0-.38-.06-.75-.1-1.13a56,56,0,0,0,13.6-8.69Zm7.71-18.72a83.1,83.1,0,0,0,.66-9l1.07.25a80.07,80.07,0,0,1-.65,9c4.39.88,8.79,1.75,13.2,2.58,0,.33-.1.66-.16,1-4.39-.81-8.79-1.66-13.18-2.52-.23,1.63-.51,3.27-.82,4.91.34,3.47.79,6.78,1.41,9.91a67.37,67.37,0,0,0,10.08-7.85l.77.76A70.8,70.8,0,0,1,494,316.46,72.44,72.44,0,0,0,498.32,331l-1,.72a81.72,81.72,0,0,1-5.59-23.06,157.93,157.93,0,0,1-7.14,22.69c-.71,1.79-1.81,2.6-3.29,2.4-1.78-.25-3.58-.51-5.4-.8l.21-1.08c1.79.33,3.51.64,5.19.88,1.1.15,2-.48,2.44-1.77,3.93-10.37,7-20.58,8.39-30.6q-6.26-1.23-12.47-2.51c.05-.36.1-.73.14-1.09Zm-8,14.1-1,.45a42.69,42.69,0,0,0-4-9.49l1-.38A46,46,0,0,1,484.27,313.42Zm21.43-13.53-.85.54a52.27,52.27,0,0,0-6.5-7.39l.79-.47A55.91,55.91,0,0,1,505.7,299.89Z"/><path class="cls-1" d="M401.83,376,8.59,539,417.74,388.12A122,122,0,0,1,401.83,376Z"/><path class="cls-1" d="M554.09,334.64l20.3-8.24-1.29-14.79-14.8,6A89.29,89.29,0,0,1,554.09,334.64Z"/><polygon class="cls-1" points="6.61 184.22 6.61 200.84 477.49 8 6.61 184.22"/></svg>